<svg width="30" height="30" viewBox="0 0 30 30" fill="none" xmlns="http://www.w3.org/2000/svg">
<path d="M26.325 16.74C27.2939 10.2001 22.6917 4.10998 16.4286 3.17571C9.78488 2.17223 4.62908 7.05121 3.6602 13.3835C2.69132 19.9234 5.94398 25.7367 13.2452 26.844C19.5082 27.7436 25.3561 23.2799 26.325 16.74Z" fill="#BC3C1F"/>
<path d="M26.3248 16.7054C27.2937 10.2693 23.003 4.31766 16.7399 3.38338C10.4768 2.44911 4.62892 6.91286 3.69465 13.3144C2.72577 19.7505 7.01651 25.7021 13.2796 26.6364C19.5427 27.5707 25.3906 23.1415 26.3248 16.7054Z" fill="url(#paint0_radial_136_43842)"/>
<path d="M26.325 16.7054C26.5672 15.079 26.4634 13.4527 26.0828 11.9648C16.8785 10.4423 17.1207 13.0375 14.1795 12.5876C7.91636 11.6534 4.6291 6.91278 3.66023 13.3489C2.69135 19.785 6.98209 25.7367 13.2452 26.6709C19.5083 27.6052 25.3907 23.1415 26.325 16.7054Z" fill="#F8750D"/>
<path d="M23.6952 16.5324C24.6294 10.2347 20.8923 4.45603 15.3559 3.62556C9.81946 2.7951 4.55985 7.25885 3.62558 13.5565C2.6913 19.8542 6.4284 25.6329 11.9648 26.4634C17.5013 27.2938 22.7609 22.8301 23.6952 16.5324Z" fill="url(#paint1_radial_136_43842)"/>
<path opacity="0.24" d="M13.8335 15.0791C13.8335 15.0791 6.94753 19.4044 4.62915 20.6847C6.04786 23.7298 8.67767 25.979 11.9649 26.4634C16.4287 27.1208 20.7194 24.3526 22.6918 19.9581C19.3007 18.0895 13.8335 15.0791 13.8335 15.0791Z" fill="#FD9306"/>
<path opacity="0.24" d="M21.4461 7.2934C19.9581 5.35565 17.8474 4.00614 15.356 3.62551C11.7573 3.10647 8.29703 4.7674 6.04785 7.70863C7.9164 9.57718 13.4874 15.0098 13.4874 15.0098C13.4874 15.0098 19.4737 9.30036 21.4461 7.2934Z" fill="#FD9306"/>
<path d="M21.6537 16.2209C22.4149 11.0651 19.4737 6.39372 15.0791 5.73627C10.6846 5.07882 6.49767 8.71211 5.73641 13.8679C4.97515 19.0237 7.91638 23.6951 12.3109 24.3525C16.7055 25.01 20.8924 21.3767 21.6537 16.2209Z" fill="url(#paint2_radial_136_43842)"/>
<path opacity="0.75" d="M19.6343 15.7833C20.256 11.6059 17.8945 7.79298 14.3598 7.26693C10.825 6.74089 7.45561 9.7009 6.83392 13.8783C6.21223 18.0557 8.57371 21.8686 12.1084 22.3946C15.6431 22.9207 19.0126 19.9607 19.6343 15.7833Z" fill="#FFCB1F"/>
<path d="M19.9346 15.8282C20.5563 11.6508 18.1948 7.8379 14.6601 7.31185C11.1253 6.78581 7.7559 9.74582 7.13421 13.9232C6.51252 18.1006 8.874 21.9135 12.4087 22.4395C15.9434 22.9656 19.3129 20.0056 19.9346 15.8282Z" fill="#BC3C1F"/>
<path d="M19.9234 15.8405C20.5462 11.6535 18.3316 7.88183 14.9406 7.39739C11.5841 6.91295 8.33146 9.85419 7.70861 14.0411C7.08576 18.228 9.30034 21.9997 12.6914 22.4842C16.0825 22.9686 19.3351 19.9928 19.9234 15.8405Z" fill="url(#paint3_radial_136_43842)"/>
<path d="M14.3869 3.27961C16.0825 3.34881 18.8161 4.24848 20.6154 6.04783C24.4563 9.78492 24.5255 13.6604 24.0757 16.8093C23.7989 18.7816 22.5878 21.7229 19.785 23.972C21.5497 22.3803 22.9684 19.3699 23.4182 17.2937C23.9719 14.6639 23.9373 10.4424 21.4113 7.25892L21.4459 7.29352C20.996 6.70528 20.477 6.18624 19.9234 5.7364C19.8542 5.7018 19.8196 5.63259 19.7504 5.59799C19.6811 5.56339 19.6465 5.49418 19.5773 5.45958C18.9891 5.04435 18.3662 4.62911 17.6396 4.31769C16.9129 3.97166 16.1171 3.76405 15.3904 3.62564C11.7917 3.10659 8.33145 4.76752 6.08228 7.70876C8.9543 3.86785 12.0685 3.2104 14.3869 3.27961Z" fill="url(#paint4_linear_136_43842)"/>
<path opacity="0.61" d="M9.3004 14.5255C9.61183 11.4112 11.1689 8.81604 14.9752 7.36272C11.6188 6.87829 8.36613 9.81952 7.74328 14.0064C7.12043 18.1934 9.335 21.9651 12.7261 22.4495C10.3385 20.754 8.91977 18.1242 9.3004 14.5255Z" fill="#E85B05"/>
<path opacity="0.61" d="M6.42832 14.5601C6.63594 9.99255 10.7537 5.63261 14.9752 5.73642C10.6152 5.07897 6.46292 8.74685 5.70166 13.8681C4.9404 19.0239 7.84703 23.6952 12.207 24.3527C8.40068 22.6571 6.22071 18.9893 6.42832 14.5601Z" fill="#E85B05"/>
<path d="M21.9302 7.2588C21.9302 7.2588 23.3836 7.60483 23.522 7.50102C23.695 7.36261 20.9614 4.6636 18.5738 3.97154C17.7087 3.72932 20.6153 5.77088 21.1344 6.25532C21.6188 6.67055 21.688 7.1896 21.9302 7.2588Z" fill="#FBFFE9"/>
<path d="M23.3837 15.3906C23.3145 16.1172 23.3837 16.7401 23.5567 16.7401C23.7297 16.7401 23.9027 16.1518 23.9719 15.4252C24.0411 14.6985 23.9719 14.0757 23.7989 14.0757C23.6605 14.0757 23.4529 14.6639 23.3837 15.3906Z" fill="white"/>
<path d="M4.629 20.6847C4.52519 20.4424 3.97154 19.3352 3.90234 18.6777C3.83313 18.0203 5.00963 18.0203 5.56327 19.1275C5.9785 19.9234 5.11344 19.5428 4.629 20.6847Z" fill="white"/>
<path d="M23.2799 20.2003C23.6259 20.0273 23.7297 20.2349 24.0757 20.2695C24.4563 20.3041 24.837 20.1657 24.9408 20.4079C25.0446 20.6156 23.2799 23.5914 20.65 25.1139C17.951 26.6364 16.9822 26.325 17.0168 26.2212C17.086 26.0136 18.2625 25.5637 19.6812 24.4219C22.6224 22.0689 23.1414 20.2695 23.2799 20.2003Z" fill="#E85B05"/>
<path opacity="0.75" d="M18.6085 19.3699C18.6085 19.3699 15.8057 23.4184 11.9302 22.3457C13.2105 22.7263 14.214 22.8301 15.8403 22.1035C17.605 21.3422 18.6085 19.3699 18.6085 19.3699Z" fill="#FFCB1F"/>
<path d="M14.8713 5.70185C14.9059 5.70185 14.9405 5.70185 14.9751 5.73645C10.5806 5.1482 6.46283 8.74689 5.70157 13.8681C4.94031 18.9547 7.84694 23.6261 12.1723 24.3527C12.1377 24.3527 12.1031 24.3527 12.0685 24.3527C7.57012 23.6953 4.52508 18.9547 5.28634 13.8335C6.0822 8.67768 10.3729 5.0444 14.8713 5.70185Z" fill="#BC3C1F"/>
<path d="M25.2177 18.4702L23.7644 18.2625L21.8267 17.5359L23.5914 18.747L25.2177 18.4702Z" fill="#E85B05"/>
<path d="M17.8127 3.76406L16.1172 3.59105L15.4597 5.80562L15.6673 3.45264L17.8127 3.76406Z" fill="#E85B05"/>
<path d="M17.9165 3.90246L17.2591 3.93706L16.7747 4.69832L16.9477 3.83325L17.9165 3.90246Z" fill="#E85B05"/>
<path d="M25.2177 18.4702L23.7644 18.2625L21.8267 17.5359L23.626 18.4356L25.2177 18.4702Z" fill="#E85B05"/>
<path d="M17.9165 3.90246H17.0515L16.7747 4.69832L16.9477 3.83325L17.9165 3.90246Z" fill="#E85B05"/>
<path d="M17.8127 3.76406L15.8749 3.52184L15.4597 5.80562L15.6673 3.45264L17.8127 3.76406Z" fill="#E85B05"/>
<path d="M19.9926 15.425L20.9961 15.6327L19.958 15.6673L19.9926 15.425Z" fill="#E85B05"/>
<path d="M19.9927 15.425L20.9962 15.6327L19.9927 15.5289V15.425Z" fill="#E85B05"/>
<defs>
<radialGradient id="paint0_radial_136_43842" cx="0" cy="0" r="1" gradientUnits="userSpaceOnUse" gradientTransform="translate(21.8941 23.7304) rotate(-171.536) scale(19.4376 20.5382)">
<stop offset="0.5411" stop-color="#FFAB0D"/>
<stop offset="0.8063" stop-color="#F1C91F"/>
<stop offset="1" stop-color="#E9DB2A"/>
</radialGradient>
<radialGradient id="paint1_radial_136_43842" cx="0" cy="0" r="1" gradientUnits="userSpaceOnUse" gradientTransform="translate(31.0867 5.10658) rotate(-171.536) scale(23.4527 24.7806)">
<stop stop-color="#E1FF4A"/>
<stop offset="0.3219" stop-color="#ECF02E"/>
<stop offset="0.7601" stop-color="#FADE0D"/>
<stop offset="1" stop-color="#FFD700"/>
</radialGradient>
<radialGradient id="paint2_radial_136_43842" cx="0" cy="0" r="1" gradientUnits="userSpaceOnUse" gradientTransform="translate(27.5616 6.89162) rotate(-171.531) scale(18.6558 20.2151)">
<stop stop-color="#E1FF4A"/>
<stop offset="0.1957" stop-color="#ECF02E"/>
<stop offset="0.4621" stop-color="#FADE0D"/>
<stop offset="0.6079" stop-color="#FFD700"/>
</radialGradient>
<radialGradient id="paint3_radial_136_43842" cx="0" cy="0" r="1" gradientUnits="userSpaceOnUse" gradientTransform="translate(20.3683 13.1652) rotate(-171.536) scale(12.8181 13.5439)">
<stop stop-color="#FCEA1A"/>
<stop offset="0.2472" stop-color="#FCD712"/>
<stop offset="0.7337" stop-color="#FCB605"/>
<stop offset="1" stop-color="#FCA900"/>
</radialGradient>
<linearGradient id="paint4_linear_136_43842" x1="21.3953" y1="23.0982" x2="12.4526" y2="3.94697" gradientUnits="userSpaceOnUse">
<stop offset="0.5979" stop-color="#FFE74A"/>
<stop offset="0.6008" stop-color="#FEE348"/>
<stop offset="0.625" stop-color="#FAC335"/>
<stop offset="0.6521" stop-color="#F6A826"/>
<stop offset="0.683" stop-color="#F39219"/>
<stop offset="0.7191" stop-color="#F08110"/>
<stop offset="0.7637" stop-color="#EE7609"/>
<stop offset="0.8263" stop-color="#ED6F05"/>
<stop offset="1" stop-color="#ED6D04"/>
</linearGradient>
</defs>
</svg>
