<svg width="13" height="13" viewBox="0 0 13 13" fill="none" xmlns="http://www.w3.org/2000/svg">
<path d="M5.84574 2.99847L3.27932 1.93848V3.88262C3.27932 4.93401 2.69086 5.85053 1.82602 6.32018L3.1881 10.8604H5.84577V2.99847H5.84574Z" fill="#F5C35F"/>
<path d="M9.12505 3.88262V1.93848L6.55862 2.99847V10.8604H9.21629L10.5784 6.3202C9.7135 5.85053 9.12505 4.93401 9.12505 3.88262Z" fill="#F5C35F"/>
<path d="M3.63572 12.5H8.76857C8.96544 12.5 9.12502 12.3404 9.12502 12.1436V11.5732H3.27927V12.1436C3.27927 12.3404 3.43885 12.5 3.63572 12.5Z" fill="#F5C35F"/>
<path d="M9.00495 1.21671L8.6238 0.656069C8.52311 0.507967 8.3283 0.45755 8.1685 0.538373C7.66254 0.794286 6.91675 0.915446 6.20221 0.915446C5.48768 0.915446 4.74189 0.79431 4.23592 0.538373C4.07612 0.45755 3.88131 0.507967 3.78062 0.656069L3.39948 1.21671L6.20221 2.37427L9.00495 1.21671Z" fill="#F5C35F"/>
<path d="M2.56642 3.88262V1.73535H2.05881C0.921776 1.73535 0 2.6571 0 3.79416V5.58497C0 5.78184 0.159585 5.94143 0.356456 5.94143H0.507611C1.64465 5.94143 2.56642 5.01965 2.56642 3.88262Z" fill="#F5C35F"/>
<path d="M10.3456 1.73535H9.83798V3.88262C9.83798 5.01968 10.7597 5.94143 11.8968 5.94143H12.0479C12.2448 5.94143 12.4044 5.78184 12.4044 5.58497V3.79414C12.4044 2.6571 11.4827 1.73535 10.3456 1.73535Z" fill="#F5C35F"/>
</svg>
