<svg width="103" height="98" viewBox="0 0 103 98" fill="none" xmlns="http://www.w3.org/2000/svg">
<g filter="url(#filter0_d_136_32101)">
<path d="M79.5505 62.2021C78.9372 62.2021 78.3058 62.1661 77.6564 62.076C69.142 60.9228 65.7146 53.8778 66.1295 47.8057C66.5444 41.5534 71.0181 34.8327 79.8391 34.8327H80.4344L80.8493 35.2652C81.4266 35.8598 86.6939 40.9949 92.755 35.2111C93.3142 34.6886 94.1801 34.7066 94.7212 35.2652C95.2444 35.8237 95.2263 36.6886 94.6671 37.2291C92.1778 39.6075 89.4719 40.7787 86.6398 40.6886C83.0681 40.5985 80.3442 38.5444 79.298 37.6255C74.3012 37.8237 71.1444 40.7967 69.7373 44.3102C69.8816 44.4003 69.9899 44.5084 70.0981 44.6525C73.3812 49.103 75.5459 47.7516 76.2494 47.3012C79.2258 45.4273 82.9418 45.5895 85.6837 47.7156C88.2994 49.7336 89.3096 52.9408 88.3174 56.112C87.1269 59.9318 84.0602 62.2021 80.1458 62.2021C79.9474 62.2021 79.767 62.2021 79.5505 62.2021ZM68.9256 47.6075C68.9075 47.7336 68.9075 47.8598 68.8895 48.0039C68.5468 52.9769 71.2526 58.4183 78.0172 59.3372C78.7027 59.4273 79.4062 59.4634 80.0556 59.4273C83.934 59.4273 85.2688 56.5264 85.6477 55.2652C86.2971 53.2111 85.6657 51.2111 83.97 49.8958C82.1481 48.4904 79.6768 48.3823 77.6925 49.6435C75.9968 50.7246 72.6777 51.7697 68.9256 47.6075Z" fill="url(#paint0_linear_136_32101)"/>
<path d="M66.6887 37.6435C63.8206 37.6435 61.0426 36.7066 58.8238 35.1931C53.6286 31.6976 50.0208 24.4724 54.4403 16.8507L54.747 16.3282L55.3242 16.1841C56.136 15.9859 63.2072 13.9859 61.241 5.85976C61.0606 5.12102 61.5116 4.36426 62.2692 4.18408C63.0088 4.0039 63.7664 4.45435 63.9468 5.21111C64.7586 8.54444 64.4158 11.4634 62.9366 13.8958C61.0786 16.9408 57.9399 18.2562 56.605 18.7066C54.278 23.121 55.2701 27.3372 57.6152 30.3282C57.7595 30.2562 57.9218 30.2021 58.0842 30.1841C63.586 29.5715 63.4778 27.0309 63.4598 26.1841C63.3335 22.6706 65.3178 19.5535 68.5287 18.2201C71.5773 16.9589 74.8784 17.6976 77.1152 20.148C79.8211 23.085 80.2721 26.8688 78.3058 30.2742C77.9631 30.9589 77.4941 31.6796 76.9529 32.3643C74.0125 36.13 70.2785 37.6435 66.6887 37.6435ZM60.0324 32.6706C60.1406 32.7426 60.2488 32.8147 60.3571 32.8868C64.506 35.6616 70.5671 36.058 74.7521 30.6526C75.1851 30.094 75.5459 29.5174 75.8525 28.9228C77.8007 25.5715 75.9427 22.9589 75.0588 22.0039C73.5977 20.4183 71.5412 19.9498 69.5569 20.7787C67.4283 21.6616 66.1115 23.7336 66.2017 26.076C66.2738 28.112 65.5342 31.5174 60.0324 32.6706Z" fill="url(#paint1_linear_136_32101)"/>
<path d="M37.6641 36.7607C33.3888 36.7607 28.9693 34.8147 26.1011 29.8418L25.7944 29.3192L25.9568 28.7427C26.1913 27.9499 27.9952 20.8328 19.9679 18.4724C19.2283 18.2562 18.8134 17.4814 19.0298 16.7607C19.2463 16.0219 20.022 15.6075 20.7435 15.8237C24.0447 16.7967 26.4078 18.5445 27.7607 21.031C29.4744 24.1661 29.0415 27.5355 28.7709 28.9048C31.4406 33.121 35.5896 34.3643 39.3597 33.8418C39.3597 33.6796 39.4138 33.5174 39.468 33.3553C41.6868 28.2922 39.4319 27.103 38.6923 26.7066C35.5716 25.067 33.8579 21.7877 34.3269 18.3282C34.7598 15.049 37.0507 12.5805 40.2978 11.8598C44.2122 10.9949 47.7118 12.4904 49.66 15.8958C50.0749 16.5445 50.4717 17.3012 50.7964 18.112C54.0434 26.04 49.66 32.5445 44.1942 35.2291C42.246 36.1841 39.9731 36.7607 37.6641 36.7607ZM42.3903 14.4183C41.795 14.4183 41.2719 14.5084 40.9111 14.5805C38.8005 15.049 37.3754 16.5985 37.0868 18.7246C36.7802 21.0129 37.9166 23.1931 39.9911 24.2742C41.795 25.2291 44.3565 27.5715 42.6248 32.9048C42.751 32.8508 42.8593 32.7967 42.9856 32.7427C47.4772 30.5445 50.8325 25.4994 48.2529 19.1751C47.9823 18.5264 47.6757 17.9138 47.3149 17.3553C45.9259 14.9409 43.8875 14.4183 42.3903 14.4183Z" fill="url(#paint2_linear_136_32101)"/>
<path d="M9.36101 60.8327C9.00023 60.8327 8.62141 60.6886 8.35083 60.4003C7.8277 59.8417 7.84574 58.9769 8.40494 58.4363C10.8943 56.0579 13.6002 54.8868 16.4323 54.9769C20.004 55.0669 22.7279 57.121 23.7741 58.0399C28.7709 57.8417 31.9277 54.8687 33.3348 51.3552C33.1904 51.2651 33.0822 51.157 32.974 51.0129C29.6909 46.5624 27.5262 47.9138 26.8227 48.3642C23.8463 50.2381 20.1303 50.076 17.3883 47.9498C14.7727 45.9318 13.7625 42.7246 14.7546 39.5534C15.9452 35.7336 19.0118 33.4633 22.9263 33.4633C23.6839 33.4273 24.5498 33.4633 25.4157 33.5715C33.93 34.7246 37.3574 41.7696 36.9425 47.8417C36.5276 54.094 32.054 60.8147 23.2329 60.8147H22.6377L22.2228 60.3823C21.6455 59.7877 16.3782 54.6525 10.3171 60.4363C10.0465 60.7066 9.70375 60.8327 9.36101 60.8327ZM28.5364 45.0669C30.1419 45.0669 32.072 45.7877 34.1465 48.076C34.1645 47.9498 34.1645 47.8237 34.1826 47.6796C34.5253 42.7066 31.8195 37.2651 25.0549 36.3462C24.3694 36.2561 23.6659 36.2201 23.0165 36.2561C19.1381 36.2561 17.8032 39.157 17.4244 40.4183C16.775 42.4724 17.4064 44.4724 19.102 45.7877C20.924 47.1931 23.3953 47.3012 25.3796 46.0399C26.1192 45.5354 27.2196 45.0669 28.5364 45.0669Z" fill="url(#paint3_linear_136_32101)"/>
<path d="M40.5142 91.5174C39.8829 91.5174 39.3237 91.085 39.1613 90.4543C38.3496 87.121 38.6923 84.2021 40.1715 81.7697C42.0295 78.7246 45.1683 77.4093 46.5032 76.9588C48.8302 72.5444 47.838 68.3282 45.493 65.3372C45.3487 65.4093 45.1863 65.4633 45.024 65.4814C39.5221 66.094 39.6303 68.6345 39.6484 69.4814C39.7746 72.9949 37.7904 76.112 34.5794 77.4453C31.5308 78.7066 28.2297 77.9679 25.9929 75.5174C23.2871 72.5805 22.8361 68.7967 24.8023 65.3913C25.1451 64.7066 25.6141 63.9859 26.1552 63.3012C31.4046 56.5264 39.2335 57.0669 44.2844 60.4543C49.4796 63.9498 53.0874 71.1751 48.6678 78.7967L48.3612 79.3192L47.7839 79.4633C46.9722 79.6615 39.9009 81.6615 41.8672 89.7877C42.0475 90.5264 41.5966 91.2832 40.8389 91.4633C40.7307 91.4994 40.6225 91.5174 40.5142 91.5174ZM36.4194 60.7787C33.5692 60.7787 30.665 61.9859 28.3199 65.0129C27.887 65.5715 27.5262 66.148 27.2195 66.7426C25.2713 70.094 27.1293 72.7066 28.0133 73.6615C29.4744 75.2471 31.5308 75.7156 33.5151 74.8868C35.6437 74.0039 36.9606 71.9318 36.8704 69.5895C36.7982 67.5534 37.5378 64.166 43.0397 62.9949C42.9315 62.9228 42.8232 62.8507 42.715 62.7787C40.8931 61.5534 38.6743 60.7787 36.4194 60.7787Z" fill="url(#paint4_linear_136_32101)"/>
<path d="M60.6277 84.0219C57.5971 84.0219 54.9815 82.5084 53.394 79.7516C52.9791 79.103 52.5823 78.3462 52.2576 77.5354C49.0106 69.6075 53.394 63.103 58.8598 60.4183C64.488 57.6615 72.5514 58.166 76.9529 65.8057L77.2595 66.3282L77.0972 66.9048C76.8627 67.6976 75.0588 74.8147 83.0861 77.1751C83.8257 77.3913 84.2406 78.166 84.0241 78.8868C83.8077 79.6255 83.032 80.0399 82.3104 79.8237C79.0093 78.8507 76.6462 77.103 75.2933 74.6165C73.5796 71.4814 74.0125 68.112 74.2831 66.7426C71.6134 62.5264 67.4644 61.2832 63.6943 61.8057C63.6943 61.9678 63.6402 62.13 63.586 62.2922C61.3672 67.3552 63.6221 68.5444 64.3617 68.9408C67.4824 70.5805 69.1961 73.8597 68.7271 77.3192C68.2942 80.5985 66.0033 83.0669 62.7562 83.7877C62.0347 83.9498 61.3131 84.0219 60.6277 84.0219ZM60.4292 62.7606C60.303 62.8147 60.1947 62.8687 60.0684 62.9228C55.5768 65.121 52.2215 70.166 54.8011 76.4904C55.0717 77.139 55.3783 77.7516 55.7391 78.3102C57.6873 81.6615 60.8622 81.3552 62.1429 81.085C64.2535 80.6165 65.6786 79.0669 65.9672 76.9408C66.2738 74.6525 65.1374 72.4724 63.0629 71.3913C61.259 70.4363 58.6975 68.094 60.4292 62.7606Z" fill="url(#paint5_linear_136_32101)"/>
<path d="M51.5361 61.3012C50.4176 61.3012 49.2992 61.0129 48.3071 60.4363L42.2099 56.9408C40.2256 55.7877 38.981 53.6435 38.981 51.3552V44.3282C38.981 42.0219 40.2256 39.8958 42.2099 38.7426L48.289 35.2291C50.2733 34.076 52.7627 34.076 54.747 35.2291L60.8261 38.7426C62.8104 39.8958 64.0551 42.0399 64.0551 44.3282V51.3552C64.0551 53.6616 62.8104 55.7877 60.8261 56.9408L54.747 60.4543C53.7729 61.0129 52.6545 61.3012 51.5361 61.3012ZM51.5361 37.139C50.9047 37.139 50.2553 37.3012 49.6961 37.6255L43.617 41.139C42.4805 41.7877 41.777 43.0129 41.777 44.3282V51.3552C41.777 52.6706 42.4805 53.8958 43.617 54.5444L49.6961 58.058C50.8325 58.7066 52.2396 58.7066 53.376 58.058L59.4551 54.5444C60.5916 53.8958 61.2951 52.6706 61.2951 51.3552V44.3282C61.2951 43.0129 60.5916 41.7877 59.4551 41.139L53.376 37.6255C52.8168 37.3012 52.1674 37.139 51.5361 37.139Z" fill="url(#paint6_linear_136_32101)"/>
<path d="M53.9172 15.5174C50.1831 15.5174 47.1526 12.4904 47.1526 8.76066C47.1526 8.00391 47.7659 7.37328 48.5416 7.37328C49.2992 7.37328 49.9306 7.98589 49.9306 8.76066C49.9306 10.9589 51.7164 12.7426 53.9172 12.7426C56.1179 12.7426 57.9038 10.9589 57.9038 8.76066C57.9038 6.56246 56.1179 4.77868 53.9172 4.77868C53.1596 4.77868 52.5282 4.16607 52.5282 3.39129C52.5282 2.61652 53.1415 2.00391 53.9172 2.00391C57.6512 2.00391 60.6818 5.03093 60.6818 8.76066C60.6818 12.4904 57.6512 15.5174 53.9172 15.5174Z" fill="url(#paint7_linear_136_32101)"/>
<path d="M18.6691 33.0489C17.5146 33.0489 16.3601 32.7606 15.2958 32.148C14.6284 31.7696 14.4119 30.9228 14.7907 30.2561C15.1695 29.5895 16.0174 29.3732 16.6848 29.7516C18.5969 30.8507 21.0322 30.2021 22.1326 28.2922C23.2329 26.3823 22.5835 23.9498 20.6714 22.8507C19.7514 22.3102 18.6691 22.1841 17.6409 22.4543C16.6126 22.7246 15.7468 23.3913 15.2237 24.3102C14.8448 24.9769 13.997 25.1931 13.3296 24.8147C12.6621 24.4363 12.4457 23.5895 12.8245 22.9228C13.7264 21.3552 15.1876 20.2381 16.9374 19.7696C18.6871 19.3012 20.5091 19.5354 22.0604 20.4363C25.2894 22.2922 26.3898 26.4363 24.5317 29.6615C23.2871 31.8237 21.0141 33.0489 18.6691 33.0489Z" fill="url(#paint8_linear_136_32101)"/>
<path d="M18.9397 71.5535C18.4527 71.5535 18.0017 71.3012 17.7311 70.8688C17.3523 70.2021 17.5688 69.3553 18.2362 68.9769C20.1483 67.8778 20.7977 65.4454 19.6974 63.5355C18.597 61.6255 16.1617 60.9769 14.2496 62.076C12.3375 63.1751 11.6881 65.6075 12.7884 67.5174C13.1673 68.1841 12.9508 69.031 12.2833 69.4093C11.6159 69.7877 10.7681 69.5715 10.3893 68.9048C8.53125 65.6796 9.63163 61.5355 12.8606 59.6796C16.0896 57.8237 20.2385 58.9228 22.0965 62.1481C23.9545 65.3733 22.8542 69.5174 19.6252 71.3733C19.4268 71.4994 19.1742 71.5535 18.9397 71.5535Z" fill="url(#paint9_linear_136_32101)"/>
<path d="M49.0647 94.0039C45.3307 94.0039 42.3001 90.9768 42.3001 87.2471C42.3001 83.5174 45.3307 80.4904 49.0647 80.4904C52.7988 80.4904 55.8293 83.5174 55.8293 87.2471C55.8293 88.0039 55.216 88.6345 54.4403 88.6345C53.6646 88.6345 53.0513 88.0219 53.0513 87.2471C53.0513 85.0489 51.2655 83.2651 49.0647 83.2651C46.864 83.2651 45.0781 85.0489 45.0781 87.2471C45.0781 89.4453 46.864 91.2291 49.0647 91.2291C49.8223 91.2291 50.4537 91.8417 50.4537 92.6165C50.4537 93.3732 49.8223 94.0039 49.0647 94.0039Z" fill="url(#paint10_linear_136_32101)"/>
<path d="M84.2767 76.4724C83.1042 76.4724 81.9497 76.1661 80.9034 75.5715C77.6745 73.7156 76.5741 69.5715 78.4321 66.3462C80.2901 63.121 84.4391 62.0219 87.668 63.8778C88.3355 64.2562 88.552 65.103 88.1731 65.7697C87.7943 66.4363 86.9465 66.6526 86.279 66.2742C84.3669 65.1751 81.9317 65.8237 80.8313 67.7336C79.7309 69.6435 80.3803 72.076 82.2924 73.1751C83.2124 73.6976 84.2948 73.8417 85.323 73.5715C86.3512 73.3012 87.2171 72.6345 87.7402 71.7156C88.119 71.0489 88.9668 70.8327 89.6343 71.2111C90.3017 71.5895 90.5182 72.4363 90.1394 73.103C89.2374 74.6706 87.7763 75.7877 86.0265 76.2562C85.4673 76.4003 84.872 76.4724 84.2767 76.4724Z" fill="url(#paint11_linear_136_32101)"/>
<path d="M86.73 37.2472C84.3849 37.2472 82.112 36.04 80.8673 33.8778C79.0093 30.6526 80.1097 26.5084 83.3387 24.6526C84.0061 24.2742 84.854 24.4904 85.2328 25.1571C85.6116 25.8237 85.3951 26.6706 84.7277 27.049C82.8156 28.1481 82.1662 30.5805 83.2665 32.4904C84.3669 34.4003 86.8022 35.049 88.7143 33.9499C90.6264 32.8508 91.2758 30.4183 90.1754 28.5084C89.7966 27.8418 90.0131 26.9949 90.6805 26.6165C91.348 26.2381 92.1958 26.4544 92.5746 27.121C94.4326 30.3463 93.3323 34.4904 90.1033 36.3463C89.039 36.9409 87.8845 37.2472 86.73 37.2472Z" fill="url(#paint12_linear_136_32101)"/>
<path d="M31.2603 21.6976C31.1881 21.6976 31.116 21.6976 31.0438 21.6796C30.2862 21.5715 29.763 20.8687 29.8713 20.112C29.9434 19.5895 30.3764 15.0669 24.4055 13.4273C23.4133 13.157 22.6376 12.4183 22.2949 11.4633C21.9522 10.5084 22.1145 9.44533 22.7098 8.63452C25.9568 4.20208 35.1747 -5.14927 50.7423 3.62551C51.4097 4.00389 51.6443 4.85073 51.2654 5.5174C50.8866 6.18407 50.0388 6.4183 49.3714 6.03992C36.2751 -1.36548 28.4642 5.5174 24.9827 10.2742C24.9106 10.3823 24.9286 10.4904 24.9466 10.5444C24.9647 10.5985 25.0188 10.7066 25.1631 10.7606C31.9638 12.6165 33.0281 17.9498 32.6312 20.5264C32.541 21.1931 31.9457 21.6976 31.2603 21.6976Z" fill="url(#paint13_linear_136_32101)"/>
<path d="M31.9818 13.0129C31.6752 13.0129 31.3685 12.9228 31.116 12.7066C30.5207 12.2381 30.4124 11.3733 30.8815 10.7606C32.7575 8.38226 38.061 4.6165 44.6632 7.48136C45.3667 7.78767 45.6914 8.59848 45.3848 9.30118C45.0781 10.0039 44.2663 10.3282 43.5628 10.0219C37.3033 7.3192 33.2446 12.2742 33.0642 12.4724C32.7936 12.8507 32.3967 13.0129 31.9818 13.0129Z" fill="url(#paint14_linear_136_32101)"/>
<path d="M5.80734 55.0129C5.60892 55.0129 5.42853 54.9949 5.2301 54.9588C4.23796 54.7787 3.39013 54.112 2.99327 53.1931C0.774481 48.1841 -2.72507 35.5174 12.6802 26.4363C13.3476 26.0399 14.1955 26.2742 14.5743 26.9228C14.9711 27.5895 14.7366 28.4363 14.0872 28.8147C1.08114 36.4904 3.13758 46.6706 5.53676 52.0579C5.59088 52.1841 5.68107 52.2201 5.75323 52.2381C5.82538 52.2561 5.93362 52.2561 6.04185 52.148C11.0567 47.1931 16.2158 48.9588 18.2362 50.5624C18.8315 51.0489 18.9397 51.9138 18.4526 52.5084C17.9836 53.103 17.0997 53.2111 16.5044 52.7246C16.0895 52.4003 12.3916 49.7697 7.99006 54.112C7.39477 54.7066 6.60106 55.0129 5.80734 55.0129Z" fill="url(#paint15_linear_136_32101)"/>
<path d="M10.2088 48.0759C9.66766 48.0759 9.14453 47.7516 8.92806 47.2111C7.79161 44.4003 7.19632 37.9318 12.9688 33.6615C13.5821 33.2111 14.448 33.3372 14.917 33.9498C15.368 34.5624 15.2417 35.4273 14.6284 35.8958C9.10845 39.9859 11.4896 46.13 11.5076 46.2021C11.7963 46.9048 11.4535 47.7156 10.732 48.0039C10.5516 48.0399 10.3712 48.0759 10.2088 48.0759Z" fill="url(#paint16_linear_136_32101)"/>
<path d="M32.054 92.5805C31.9458 92.5805 31.8375 92.5805 31.7293 92.5625C26.2635 91.9679 13.5461 88.6886 13.3657 70.8147C13.3657 70.0579 13.979 69.4273 14.7366 69.4093H14.7547C15.5123 69.4093 16.1256 70.0219 16.1437 70.7787C16.288 85.8597 26.1553 89.1751 32.0179 89.8057C32.1442 89.8237 32.2344 89.7516 32.2705 89.6976C32.3065 89.6435 32.3787 89.5354 32.3426 89.3913C30.5568 82.5805 34.6516 78.9949 37.0688 78.058C37.7904 77.7877 38.5841 78.13 38.8727 78.8507C39.1433 79.5534 38.8006 80.3643 38.097 80.6345C37.61 80.8327 33.4791 82.7246 35.0304 88.6886C35.283 89.6796 35.0485 90.7246 34.381 91.4994C33.7857 92.1841 32.9379 92.5805 32.054 92.5805Z" fill="url(#paint17_linear_136_32101)"/>
<path d="M29.7089 84.4543C29.6368 84.4543 29.5826 84.4543 29.5105 84.4363C26.498 84.0039 20.5992 81.3012 19.7695 74.166C19.6793 73.4093 20.2204 72.7246 20.9961 72.6345C21.7537 72.5444 22.4392 73.0849 22.5294 73.8597C23.3231 80.6885 29.8352 81.6976 29.9073 81.7156C30.665 81.8237 31.1881 82.5264 31.0799 83.2831C30.9716 83.9498 30.3944 84.4543 29.7089 84.4543Z" fill="url(#paint18_linear_136_32101)"/>
<path d="M64.47 96.0039C60.9343 96.0039 56.8575 94.9949 52.1855 92.3643C51.518 91.9859 51.2835 91.1391 51.6623 90.4724C52.0412 89.8057 52.889 89.5715 53.5564 89.9499C66.7068 97.3553 74.5177 90.4904 77.9992 85.7336C78.0713 85.6255 78.0533 85.5174 78.0353 85.4634C78.0172 85.4093 77.9631 85.3012 77.8188 85.2472C71.0181 83.3913 69.9538 78.058 70.3507 75.4814C70.4589 74.7246 71.1805 74.2021 71.9381 74.3282C72.6957 74.4363 73.2189 75.1391 73.0926 75.8958C73.0204 76.4183 72.5875 80.9409 78.5584 82.5805C79.5505 82.8508 80.3262 83.5895 80.6689 84.5445C81.0117 85.4994 80.8493 86.5625 80.254 87.3733C77.9631 90.4904 72.7498 96.0039 64.47 96.0039Z" fill="url(#paint19_linear_136_32101)"/>
<path d="M63.081 89.5354C61.6018 89.5354 59.9963 89.2291 58.3187 88.5084C57.6152 88.2021 57.2905 87.3913 57.5971 86.6886C57.9038 85.9859 58.7155 85.6615 59.4191 85.9679C65.6786 88.6706 69.7373 83.7156 69.9177 83.5174C70.3867 82.9228 71.2706 82.8147 71.8659 83.3012C72.4612 83.7697 72.5694 84.6345 72.1004 85.2471C70.6754 87.0129 67.3923 89.5354 63.081 89.5354Z" fill="url(#paint20_linear_136_32101)"/>
<path d="M89.6162 69.7697C89.1472 69.7697 88.6782 69.5174 88.4256 69.085C88.0288 68.4183 88.2633 67.5715 88.9127 67.1931C101.919 59.5174 99.8623 49.3372 97.4631 43.9498C97.409 43.8237 97.3188 43.7877 97.2467 43.7696C97.1745 43.7516 97.0663 43.7516 96.9581 43.8597C91.9432 48.8147 86.7841 47.0489 84.7637 45.4453C84.1684 44.9588 84.0602 44.094 84.5473 43.4994C85.0163 42.9048 85.9002 42.7967 86.4955 43.2832C86.9104 43.6075 90.6084 46.2381 95.0099 41.8958C95.7314 41.1751 96.7777 40.8688 97.7698 41.0489C98.7619 41.2291 99.6098 41.8958 100.007 42.8147C102.225 47.8237 105.725 60.4904 90.3197 69.5715C90.0852 69.7156 89.8507 69.7697 89.6162 69.7697Z" fill="url(#paint21_linear_136_32101)"/>
<path d="M89.1833 62.6345C88.7684 62.6345 88.3355 62.4363 88.0649 62.0759C87.614 61.4633 87.7402 60.5985 88.3535 60.13C93.8735 56.0399 91.4923 49.8958 91.4743 49.8237C91.1857 49.121 91.5284 48.3102 92.25 48.0219C92.9535 47.7336 93.7652 48.0759 94.0539 48.7967C95.1903 51.6075 95.7856 58.0759 90.0131 62.3462C89.7606 62.5444 89.472 62.6345 89.1833 62.6345Z" fill="url(#paint22_linear_136_32101)"/>
<path d="M88.2272 26.6165C87.4696 26.6165 86.8563 26.0039 86.8382 25.2471C86.6939 10.166 76.8266 6.85071 70.964 6.22008C70.8377 6.20206 70.7475 6.27413 70.7114 6.32819C70.6753 6.38224 70.6032 6.49035 70.6393 6.63449C72.4251 13.4453 68.3303 17.0309 65.9131 17.9678C65.1915 18.2381 64.3978 17.8958 64.1092 17.175C63.8386 16.4723 64.1813 15.6615 64.8848 15.3913C65.3719 15.1931 69.5028 13.3012 67.9515 7.3372C67.6989 6.3462 67.9334 5.30116 68.6009 4.52638C69.2683 3.75161 70.2604 3.37323 71.2526 3.48134C76.7184 4.07593 89.4358 7.35521 89.6162 25.2291C89.6162 25.9678 89.0029 26.5985 88.2272 26.6165Z" fill="url(#paint23_linear_136_32101)"/>
<path d="M81.8234 23.4093C81.1199 23.4093 80.5246 22.8868 80.4524 22.1841C79.6587 15.3552 73.1467 14.3462 73.0745 14.3282C72.3169 14.2201 71.7938 13.5174 71.902 12.7606C72.0102 12.0039 72.7137 11.4814 73.4714 11.5895C76.4839 12.0219 82.3826 14.7246 83.2124 21.8597C83.3026 22.6165 82.7614 23.3012 81.9858 23.3913C81.9316 23.3913 81.8775 23.4093 81.8234 23.4093Z" fill="url(#paint24_linear_136_32101)"/>
</g>
<defs>
<filter id="filter0_d_136_32101" x="0.0078125" y="0" width="102.984" height="98.0039" filterUnits="userSpaceOnUse" color-interpolation-filters="sRGB">
<feFlood flood-opacity="0" result="BackgroundImageFix"/>
<feColorMatrix in="SourceAlpha" type="matrix" values="0 0 0 0 0 0 0 0 0 0 0 0 0 0 0 0 0 0 127 0" result="hardAlpha"/>
<feOffset dy="1"/>
<feGaussianBlur stdDeviation="0.5"/>
<feComposite in2="hardAlpha" operator="out"/>
<feColorMatrix type="matrix" values="0 0 0 0 0.117647 0 0 0 0 0.117647 0 0 0 0 0.117647 0 0 0 1 0"/>
<feBlend mode="normal" in2="BackgroundImageFix" result="effect1_dropShadow_136_32101"/>
<feBlend mode="normal" in="SourceGraphic" in2="effect1_dropShadow_136_32101" result="shape"/>
</filter>
<linearGradient id="paint0_linear_136_32101" x1="66.0961" y1="48.5172" x2="95.1005" y2="48.5172" gradientUnits="userSpaceOnUse">
<stop stop-color="#F7CF81"/>
<stop offset="0.545" stop-color="#FCF2C0"/>
<stop offset="1" stop-color="#F6CF81"/>
</linearGradient>
<linearGradient id="paint1_linear_136_32101" x1="52.4521" y1="20.894" x2="79.5165" y2="20.894" gradientUnits="userSpaceOnUse">
<stop stop-color="#F7CF81"/>
<stop offset="0.545" stop-color="#FCF2C0"/>
<stop offset="1" stop-color="#F6CF81"/>
</linearGradient>
<linearGradient id="paint2_linear_136_32101" x1="18.9725" y1="24.19" x2="51.9064" y2="24.19" gradientUnits="userSpaceOnUse">
<stop stop-color="#F7CF81"/>
<stop offset="0.545" stop-color="#FCF2C0"/>
<stop offset="1" stop-color="#F6CF81"/>
</linearGradient>
<linearGradient id="paint3_linear_136_32101" x1="7.97156" y1="47.1413" x2="36.9759" y2="47.1413" gradientUnits="userSpaceOnUse">
<stop stop-color="#F7CF81"/>
<stop offset="0.545" stop-color="#FCF2C0"/>
<stop offset="1" stop-color="#F6CF81"/>
</linearGradient>
<linearGradient id="paint4_linear_136_32101" x1="23.5916" y1="74.7672" x2="50.656" y2="74.7672" gradientUnits="userSpaceOnUse">
<stop stop-color="#F7CF81"/>
<stop offset="0.545" stop-color="#FCF2C0"/>
<stop offset="1" stop-color="#F6CF81"/>
</linearGradient>
<linearGradient id="paint5_linear_136_32101" x1="51.1476" y1="71.4551" x2="84.0815" y2="71.4551" gradientUnits="userSpaceOnUse">
<stop stop-color="#F7CF81"/>
<stop offset="0.545" stop-color="#FCF2C0"/>
<stop offset="1" stop-color="#F6CF81"/>
</linearGradient>
<linearGradient id="paint6_linear_136_32101" x1="38.981" y1="47.8327" x2="64.0551" y2="47.8327" gradientUnits="userSpaceOnUse">
<stop stop-color="#F7CF81"/>
<stop offset="0.545" stop-color="#FCF2C0"/>
<stop offset="1" stop-color="#F6CF81"/>
</linearGradient>
<linearGradient id="paint7_linear_136_32101" x1="47.1526" y1="8.76066" x2="60.6818" y2="8.76066" gradientUnits="userSpaceOnUse">
<stop stop-color="#F7CF81"/>
<stop offset="0.545" stop-color="#FCF2C0"/>
<stop offset="1" stop-color="#F6CF81"/>
</linearGradient>
<linearGradient id="paint8_linear_136_32101" x1="12.6387" y1="26.2915" x2="25.4345" y2="26.2915" gradientUnits="userSpaceOnUse">
<stop stop-color="#F7CF81"/>
<stop offset="0.545" stop-color="#FCF2C0"/>
<stop offset="1" stop-color="#F6CF81"/>
</linearGradient>
<linearGradient id="paint9_linear_136_32101" x1="9.48651" y1="65.1657" x2="22.9993" y2="65.1657" gradientUnits="userSpaceOnUse">
<stop stop-color="#F7CF81"/>
<stop offset="0.545" stop-color="#FCF2C0"/>
<stop offset="1" stop-color="#F6CF81"/>
</linearGradient>
<linearGradient id="paint10_linear_136_32101" x1="42.3001" y1="87.2471" x2="55.8293" y2="87.2471" gradientUnits="userSpaceOnUse">
<stop stop-color="#F7CF81"/>
<stop offset="0.545" stop-color="#FCF2C0"/>
<stop offset="1" stop-color="#F6CF81"/>
</linearGradient>
<linearGradient id="paint11_linear_136_32101" x1="77.5294" y1="69.7242" x2="90.3251" y2="69.7242" gradientUnits="userSpaceOnUse">
<stop stop-color="#F7CF81"/>
<stop offset="0.545" stop-color="#FCF2C0"/>
<stop offset="1" stop-color="#F6CF81"/>
</linearGradient>
<linearGradient id="paint12_linear_136_32101" x1="79.9646" y1="30.8571" x2="93.4774" y2="30.8571" gradientUnits="userSpaceOnUse">
<stop stop-color="#F7CF81"/>
<stop offset="0.545" stop-color="#FCF2C0"/>
<stop offset="1" stop-color="#F6CF81"/>
</linearGradient>
<linearGradient id="paint13_linear_136_32101" x1="22.1176" y1="10.8488" x2="51.4466" y2="10.8488" gradientUnits="userSpaceOnUse">
<stop stop-color="#F7CF81"/>
<stop offset="0.545" stop-color="#FCF2C0"/>
<stop offset="1" stop-color="#F6CF81"/>
</linearGradient>
<linearGradient id="paint14_linear_136_32101" x1="30.5893" y1="9.73157" x2="45.5004" y2="9.73157" gradientUnits="userSpaceOnUse">
<stop stop-color="#F7CF81"/>
<stop offset="0.545" stop-color="#FCF2C0"/>
<stop offset="1" stop-color="#F6CF81"/>
</linearGradient>
<linearGradient id="paint15_linear_136_32101" x1="1.00781" y1="40.6275" x2="18.7594" y2="40.6275" gradientUnits="userSpaceOnUse">
<stop stop-color="#F7CF81"/>
<stop offset="0.545" stop-color="#FCF2C0"/>
<stop offset="1" stop-color="#F6CF81"/>
</linearGradient>
<linearGradient id="paint16_linear_136_32101" x1="8.18292" y1="40.734" x2="15.1869" y2="40.734" gradientUnits="userSpaceOnUse">
<stop stop-color="#F7CF81"/>
<stop offset="0.545" stop-color="#FCF2C0"/>
<stop offset="1" stop-color="#F6CF81"/>
</linearGradient>
<linearGradient id="paint17_linear_136_32101" x1="13.3657" y1="80.9949" x2="38.9652" y2="80.9949" gradientUnits="userSpaceOnUse">
<stop stop-color="#F7CF81"/>
<stop offset="0.545" stop-color="#FCF2C0"/>
<stop offset="1" stop-color="#F6CF81"/>
</linearGradient>
<linearGradient id="paint18_linear_136_32101" x1="19.7596" y1="78.5395" x2="31.094" y2="78.5395" gradientUnits="userSpaceOnUse">
<stop stop-color="#F7CF81"/>
<stop offset="0.545" stop-color="#FCF2C0"/>
<stop offset="1" stop-color="#F6CF81"/>
</linearGradient>
<linearGradient id="paint19_linear_136_32101" x1="51.4811" y1="85.1567" x2="80.8463" y2="85.1567" gradientUnits="userSpaceOnUse">
<stop stop-color="#F7CF81"/>
<stop offset="0.545" stop-color="#FCF2C0"/>
<stop offset="1" stop-color="#F6CF81"/>
</linearGradient>
<linearGradient id="paint20_linear_136_32101" x1="57.4815" y1="86.2651" x2="72.3926" y2="86.2651" gradientUnits="userSpaceOnUse">
<stop stop-color="#F7CF81"/>
<stop offset="0.545" stop-color="#FCF2C0"/>
<stop offset="1" stop-color="#F6CF81"/>
</linearGradient>
<linearGradient id="paint21_linear_136_32101" x1="84.2405" y1="55.384" x2="101.992" y2="55.384" gradientUnits="userSpaceOnUse">
<stop stop-color="#F7CF81"/>
<stop offset="0.545" stop-color="#FCF2C0"/>
<stop offset="1" stop-color="#F6CF81"/>
</linearGradient>
<linearGradient id="paint22_linear_136_32101" x1="87.795" y1="55.2771" x2="94.799" y2="55.2771" gradientUnits="userSpaceOnUse">
<stop stop-color="#F7CF81"/>
<stop offset="0.545" stop-color="#FCF2C0"/>
<stop offset="1" stop-color="#F6CF81"/>
</linearGradient>
<linearGradient id="paint23_linear_136_32101" x1="64.0167" y1="15.0398" x2="89.6162" y2="15.0398" gradientUnits="userSpaceOnUse">
<stop stop-color="#F7CF81"/>
<stop offset="0.545" stop-color="#FCF2C0"/>
<stop offset="1" stop-color="#F6CF81"/>
</linearGradient>
<linearGradient id="paint24_linear_136_32101" x1="71.8878" y1="17.4923" x2="83.2222" y2="17.4923" gradientUnits="userSpaceOnUse">
<stop stop-color="#F7CF81"/>
<stop offset="0.545" stop-color="#FCF2C0"/>
<stop offset="1" stop-color="#F6CF81"/>
</linearGradient>
</defs>
</svg>
