<svg width="50" height="48" viewBox="0 0 50 48" fill="none" xmlns="http://www.w3.org/2000/svg">
<g filter="url(#filter0_d_176_42449)">
<path d="M35.376 39.7545C30.9974 33.2481 24.8593 29.1969 24.9412 32.798C24.8593 29.156 18.844 33.4118 14.6701 40C18.844 33.4118 20.8082 26.3325 18.0256 27.9284C20.8082 26.2916 14.9156 21.8721 8 20.399C14.9156 21.8721 22.2813 21.5857 20.5217 19.867C22.2813 21.5857 24.6547 14.6292 24.5729 8C24.6547 14.5882 27.1918 21.5038 28.9514 19.7442C27.2327 21.5038 34.5576 21.6266 41.4732 19.9489C34.5576 21.6266 28.7877 26.1688 31.6522 27.7238C28.8287 26.2506 30.9974 33.289 35.376 39.7545Z" fill="url(#paint0_linear_176_42449)"/>
</g>
<defs>
<filter id="filter0_d_176_42449" x="0" y="0" width="49.4731" height="48" filterUnits="userSpaceOnUse" color-interpolation-filters="sRGB">
<feFlood flood-opacity="0" result="BackgroundImageFix"/>
<feColorMatrix in="SourceAlpha" type="matrix" values="0 0 0 0 0 0 0 0 0 0 0 0 0 0 0 0 0 0 127 0" result="hardAlpha"/>
<feOffset/>
<feGaussianBlur stdDeviation="4"/>
<feComposite in2="hardAlpha" operator="out"/>
<feColorMatrix type="matrix" values="0 0 0 0 0.960784 0 0 0 0 0.764706 0 0 0 0 0.372549 0 0 0 0.6 0"/>
<feBlend mode="normal" in2="BackgroundImageFix" result="effect1_dropShadow_176_42449"/>
<feBlend mode="normal" in="SourceGraphic" in2="effect1_dropShadow_176_42449" result="shape"/>
</filter>
<linearGradient id="paint0_linear_176_42449" x1="24.7366" y1="8" x2="24.7366" y2="40" gradientUnits="userSpaceOnUse">
<stop stop-color="#FEF0D3"/>
<stop offset="1" stop-color="#FCD586"/>
</linearGradient>
</defs>
</svg>
