<svg width="28" height="28" viewBox="0 0 28 28" fill="none" xmlns="http://www.w3.org/2000/svg">
<path d="M20.2348 14C20.2348 10.6431 18.2513 10.1086 18.1669 10.0875C18.0444 10.0569 17.9145 10.0844 17.815 10.1621C17.7154 10.2399 17.6572 10.3591 17.6572 10.4854C17.6572 10.986 17.25 11.3932 16.7494 11.3932C15.5459 11.3471 15.5478 9.62289 16.7494 9.57761C16.976 9.57761 17.1596 9.39397 17.1596 9.16746C17.1596 7.97232 16.1873 7 14.9921 7C14.0392 7 13.264 7.77525 13.264 8.72813C13.264 9.22871 12.8568 9.63594 12.3562 9.63594C12.1563 9.63594 11.8726 9.42017 11.7676 9.31675C11.3703 8.94775 10.8196 9.49545 11.1854 9.89464C11.1957 9.90555 11.5067 10.2383 11.5067 10.7051C11.5067 11.0845 11.198 11.3932 10.8186 11.3932C10.4391 11.3932 10.1304 11.0845 10.1304 10.7051C10.1304 10.5629 10.0568 10.4309 9.9359 10.3562C9.81499 10.2815 9.664 10.2747 9.53685 10.3382C7.94569 11.2066 7.184 14.9352 9.28003 17.3747C8.9795 16.7298 8.8281 16.0881 8.8281 15.453C8.8532 12.7071 12.0191 11.3843 14.1135 13.1155C16.2088 11.3841 19.3738 12.7077 19.3989 15.4531C19.3989 16.0881 19.2475 16.7298 18.947 17.3747C19.6997 16.4047 20.2348 15.2685 20.2348 14Z" fill="#F5C35F"/>
<path d="M16.2772 13.1506C15.2626 13.1506 14.5192 13.7812 14.1135 14.2382C11.0425 10.883 5.98202 15.9221 13.9025 20.9417C14.0324 21.0196 14.1947 21.0196 14.3246 20.9417C14.4983 20.8374 18.5786 18.3556 18.5786 15.4532C18.5786 14.1835 17.5462 13.1506 16.2772 13.1506Z" fill="#F5C35F"/>
</svg>
