<svg width="29" height="21" viewBox="0 0 29 21" fill="none" xmlns="http://www.w3.org/2000/svg">
<path d="M17.594 1.2069C17.594 1.03189 17.488 0.856876 17.3114 0.716866C17.0995 0.576856 16.8169 0.471849 16.4283 0.506852C16.0398 0.541854 15.5453 0.716866 15.1214 1.03189C14.6975 1.38191 14.3443 1.90695 14.1677 2.46699C14.0617 2.74701 14.0264 3.13204 14.0264 3.55207C14.0264 3.9721 14.1323 4.46213 14.2736 4.91717C14.4502 5.3722 14.6975 5.82723 14.9801 6.21226C15.298 6.59729 15.6512 6.94731 16.0045 7.22733C16.393 7.50735 16.7462 7.71737 17.1348 7.89238C17.3114 7.96238 17.488 8.03239 17.6646 8.10239C17.8413 8.1374 17.9825 8.2074 18.1238 8.2424C18.2651 8.27741 18.4064 8.31241 18.5124 8.31241C18.6184 8.31241 18.7243 8.34741 18.8303 8.34741C19.0069 8.34741 19.1129 8.34741 19.1129 8.27741C19.1129 8.2424 19.0776 8.1724 18.9363 8.06739C18.795 7.96238 18.6184 7.78737 18.4418 7.61236C18.3358 7.50735 18.2298 7.40234 18.1238 7.29734C18.0179 7.19233 17.9119 7.08732 17.8059 6.94731C17.594 6.70229 17.3821 6.42227 17.2054 6.14225C17.0288 5.86223 16.8875 5.54721 16.7816 5.23219C16.6756 4.91717 16.6403 4.63715 16.6403 4.35713C16.6403 4.11211 16.6403 3.86709 16.7109 3.69208C16.7109 3.65708 16.7462 3.62207 16.7462 3.55207C16.7462 3.51707 16.7462 3.48206 16.7816 3.44706C16.7816 3.41206 16.8169 3.37706 16.8169 3.34205C16.8169 3.30705 16.8522 3.30705 16.8522 3.27205C16.9229 3.09704 16.9582 2.92202 16.9935 2.78201C17.0288 2.642 17.0995 2.46699 17.2054 2.29198C17.3467 1.94195 17.6293 1.59193 17.594 1.2069Z" fill="url(#paint0_linear_136_43822)"/>
<path d="M17.594 19.7932C17.594 19.9682 17.488 20.1432 17.3114 20.2832C17.0995 20.4232 16.8169 20.5282 16.4283 20.4932C16.0398 20.4582 15.5453 20.2832 15.1214 19.9682C14.6975 19.6182 14.3443 19.0931 14.1677 18.5331C14.0617 18.2531 14.0264 17.868 14.0264 17.448C14.0264 17.028 14.1323 16.5379 14.2736 16.0829C14.4502 15.6279 14.6975 15.1728 14.9801 14.7878C15.298 14.4028 15.6512 14.0528 16.0045 13.7727C16.393 13.4927 16.7462 13.2827 17.1348 13.1077C17.3114 13.0377 17.488 12.9677 17.6646 12.8977C17.8413 12.8627 17.9825 12.7927 18.1238 12.7577C18.2651 12.7227 18.4064 12.6877 18.5124 12.6877C18.6184 12.6877 18.7243 12.6527 18.8303 12.6527C19.0069 12.6527 19.1129 12.6527 19.1129 12.7227C19.1129 12.7577 19.0776 12.8277 18.9363 12.9327C18.795 13.0377 18.6184 13.2127 18.4417 13.3877C18.3358 13.4927 18.2298 13.5977 18.1238 13.7027C18.0179 13.8077 17.9119 13.9127 17.8059 14.0528C17.594 14.2978 17.3821 14.5778 17.2054 14.8578C17.0288 15.1378 16.8875 15.4529 16.7816 15.7679C16.6756 16.0829 16.6403 16.3629 16.6403 16.6429C16.6403 16.888 16.6403 17.133 16.7109 17.308C16.7109 17.343 16.7462 17.378 16.7462 17.448C16.7462 17.483 16.7462 17.518 16.7816 17.553C16.7816 17.588 16.8169 17.623 16.8169 17.658C16.7816 17.658 16.7816 17.693 16.8169 17.728C16.8875 17.903 16.9229 18.078 16.9582 18.2181C16.9935 18.3581 17.0641 18.5331 17.1701 18.7081C17.3467 19.0581 17.6293 19.4081 17.594 19.7932Z" fill="url(#paint1_linear_136_43822)"/>
<path d="M13.6025 8.59218C8.97521 5.30195 1.59269 10.0973 0.88623 10.5523C1.59269 11.0074 8.97521 15.8027 13.5672 12.5125C11.2359 14.5776 11.4831 19.653 11.907 18.1829C13.8498 11.2874 19.0776 12.1274 19.0776 12.1274L19.2189 12.1274C19.5368 12.1274 19.7487 11.8824 19.7487 11.6024L19.7487 11.4624C19.7487 11.3574 19.8547 11.2524 19.9607 11.2524L20.9497 11.2524C20.9851 11.2524 21.0204 11.2524 21.0204 11.2874L23.8815 12.6175C24.8706 11.8824 27.6964 10.8323 28.2969 10.6223C28.3322 10.6223 28.3322 10.5523 28.2969 10.5523C27.6964 10.3423 24.8706 9.29223 23.8815 8.55718L21.0204 9.88728C20.9851 9.88728 20.9497 9.92228 20.9497 9.92228L19.9607 9.92228C19.8547 9.92228 19.7487 9.81727 19.7487 9.71226L19.7487 9.67726C19.7487 9.32724 19.4662 9.01221 19.0776 9.01221C19.0776 9.01221 13.8145 9.85227 11.907 2.95678C11.5185 1.41667 11.2712 6.52704 13.6025 8.59218Z" fill="url(#paint2_linear_136_43822)"/>
<defs>
<linearGradient id="paint0_linear_136_43822" x1="14.0264" y1="4.42375" x2="19.1211" y2="4.42375" gradientUnits="userSpaceOnUse">
<stop stop-color="#BA9643"/>
<stop offset="1" stop-color="#605333"/>
</linearGradient>
<linearGradient id="paint1_linear_136_43822" x1="14.0264" y1="16.5763" x2="19.1211" y2="16.5763" gradientUnits="userSpaceOnUse">
<stop stop-color="#BA9643"/>
<stop offset="1" stop-color="#605333"/>
</linearGradient>
<linearGradient id="paint2_linear_136_43822" x1="0.886231" y1="10.559" x2="28.3676" y2="10.559" gradientUnits="userSpaceOnUse">
<stop stop-color="#BA9643"/>
<stop offset="1" stop-color="#605333"/>
</linearGradient>
</defs>
</svg>
